/* XPM */
static char * shade_xpm[] = {
"16 16 2 1",
" 	c None",
".	c #E0E0E0",
"                ",
"                ",
"                ",
"                ",
"                ",
"     ......     ",
"     ......     ",
"                ",
"                ",
"                ",
"                ",
"                ",
"                ",
"                ",
"                ",
"                "};
