/* XPM */
static char * stick_xpm[] = {
"18 18 29 1",
" 	c None",
".	c #3E3C3A",
"+	c #343230",
"@	c #514F4D",
"#	c #474645",
"$	c #474545",
"%	c #464545",
"&	c #464544",
"*	c #474544",
"=	c #464443",
"-	c #454443",
";	c #454342",
">	c #444342",
",	c #444341",
"'	c #434241",
")	c #444241",
"!	c #434240",
"~	c #43413F",
"{	c #43423F",
"]	c #42403F",
"^	c #41403E",
"/	c #42403D",
"(	c #413F3E",
"_	c #413F3D",
":	c #403E3C",
"<	c #403D3B",
"[	c #3F3E3B",
"}	c #3F3D3B",
"|	c #393735",
"..................",
".+++++++++++++++++",
".+@@@@@@@@@@@@@@@@",
".+@###############",
".+@$$$%%%%%%%%%%%%",
".+@&&*************",
".+@==-----------==",
".+@-;;;;;;;;;;;;;;",
".+@>,,,,,,,,,,,,,,",
".+@'))))))))))))!!",
".+@~~~~~~~~~~~~~{{",
".+@]^^^^^^^^^^^^^^",
".+@/((((((((((((__",
".+@:<<<<<<<<<<<<[[",
".+@}}}}}}}}}}}}}}}",
".+@@@@@@@@@@@@@@@@",
".+++++++++++++++++",
"..||||||||||||||||"};
