/* XPM */
static char * title_xpm[] = {
"7 16 32 1",
" 	c None",
".	c #DFDFDF",
"+	c #E6E5E6",
"@	c #E5E5E5",
"#	c #E5E4E5",
"$	c #E4E4E5",
"%	c #E4E4E4",
"&	c #E4E4E3",
"*	c #EBEBEB",
"=	c #EAEAEB",
"-	c #EAEAEA",
";	c #E9E9E9",
">	c #E9E9EA",
",	c #F1F1F0",
"'	c #F0F0F1",
")	c #F1F0F0",
"!	c #F0F0F0",
"~	c #F0EFF0",
"{	c #EFEFF0",
"]	c #EFEFEF",
"^	c #F7F6F6",
"/	c #F6F7F6",
"(	c #F6F6F6",
"_	c #F6F5F5",
":	c #F5F5F5",
"<	c #F4F5F4",
"[	c #FDFDFC",
"}	c #FCFCFC",
"|	c #FBFBFB",
"1	c #FBFBFA",
"2	c #FBFAFB",
"3	c #FCFDFE",
".......",
"+@#$%%&",
"**=--;>",
",')!~{]",
"^/((_:<",
"[}}||12",
"3333333",
"3333333",
"3333333",
"3333333",
"3333333",
"3333333",
"3333333",
"3333333",
"3333333",
"3333333"};
